<svg version="1.2" xmlns="http://www.w3.org/2000/svg" viewBox="0 0 224 44" width="224" height="44">
	<title>OBJECTS</title>
	<style>
		.s0 { fill: #ffffff } 
	</style>
	<g id="OBJECTS">
		<g id="&lt;Group&gt;">
			<g id="&lt;Group&gt;">
				<g id="-e-cloud_2" style="opacity: .54">
					<path id="&lt;Path&gt;" class="s0" d="m-0.1 43.3c11.3-7.9 26.7-9.8 39.6-4.7 0.6 0.2 1.2 0.4 1.8 0.3 1-0.1 1.6-1.2 2.1-2.1 6.5-12.7 17-23.4 29.7-30.2 5.4-3 11.2-5.2 17.3-5.9 10.2-1.1 20.6 2.4 29.1 8.2 8.5 5.8 15.3 13.8 21 22.3 0.8 1.2 1.6 2.5 2.8 3.3 3.1 2 7.1 0.6 10.5-0.8 11.9-4.5 26.4-6.4 36.7 1.2 1.7 1.2 3.4 2.8 5.6 3 1.1 0.1 2.3-0.2 3.4-0.5 8.4-1.8 17.7 0.2 24.5 5.5"/>
				</g>
			</g>
		</g>
	</g>
</svg>