<svg version="1.2" xmlns="http://www.w3.org/2000/svg" viewBox="0 0 163 32" width="163" height="32">
	<title>OBJECTS</title>
	<style>
		.s0 { fill: #ffffff } 
	</style>
	<g id="OBJECTS">
		<g id="&lt;Group&gt;">
			<g id="&lt;Group&gt;">
				<g id="-e-cloud_1" style="opacity: .54">
					<path id="&lt;Path&gt;" class="s0" d="m0.1 31.3c1.2-4.3 5.5-8.1 11.1-9.5 5.5-1.4 12-0.4 16.5 2.5 1.2 0.8 2.9 1.9 4.3 1.2 0.7-0.3 1-0.9 1.2-1.4 3.5-7 8.6-13.7 16.3-18.3 7.7-4.6 18.3-6.8 27.6-4.4 10 2.6 16.9 10.1 18.6 17.9 0.3 1.5 1.2 3.3 3 3.1 0.6-0.1 1-0.4 1.5-0.7 4.9-3 10.6-5.7 16.9-5.8 6.4-0.2 13.2 3 14.1 7.8 0.1 0.8 0.3 1.9 1.4 2.1 0.5 0.1 0.9 0 1.4-0.2 5-1.4 10.5-2 15.9-1.7 3.1 0.2 6.2 0.7 8.7 2 2.5 1.3 4.2 3.7 3.6 5.9"/>
				</g>
			</g>
		</g>
	</g>
</svg>