<svg version="1.2" xmlns="http://www.w3.org/2000/svg" viewBox="0 0 553 541" width="553" height="541">
	<title>OBJECTS</title>
	<defs>
		<linearGradient id="g1" x2="1" gradientUnits="userSpaceOnUse" gradientTransform="matrix(579.738,-972.201,758.892,452.539,-470.212,808.212)">
			<stop offset="0" stop-color="#ffffff"/>
			<stop offset="1" stop-color="#035591"/>
		</linearGradient>
		<linearGradient id="g2" x2="1" gradientUnits="userSpaceOnUse" gradientTransform="matrix(451.777,-757.614,706.65,421.386,-218.483,645.442)">
			<stop offset="0" stop-color="#ffffff"/>
			<stop offset="1" stop-color="#046aaf"/>
		</linearGradient>
		<linearGradient id="g3" x2="1" gradientUnits="userSpaceOnUse" gradientTransform="matrix(2.876,0,0,2.876,133.09,198.112)">
			<stop offset="0" stop-color="#ffffff"/>
			<stop offset="1" stop-color="#ffffff"/>
		</linearGradient>
		<linearGradient id="g4" x2="1" gradientUnits="userSpaceOnUse" gradientTransform="matrix(4.404,0,0,4.404,156.056,132.27)">
			<stop offset="0" stop-color="#ffffff"/>
			<stop offset="1" stop-color="#ffffff"/>
		</linearGradient>
		<linearGradient id="g5" x2="1" gradientUnits="userSpaceOnUse" gradientTransform="matrix(4.405,0,0,4.404,44.595,69.303)">
			<stop offset="0" stop-color="#ffffff"/>
			<stop offset="1" stop-color="#ffffff"/>
		</linearGradient>
		<linearGradient id="g6" x2="1" gradientUnits="userSpaceOnUse" gradientTransform="matrix(4.405,0,0,4.404,43.157,249.982)">
			<stop offset="0" stop-color="#ffffff"/>
			<stop offset="1" stop-color="#ffffff"/>
		</linearGradient>
		<linearGradient id="g7" x2="1" gradientUnits="userSpaceOnUse" gradientTransform="matrix(4.404,0,0,4.404,329.315,145.573)">
			<stop offset="0" stop-color="#ffffff"/>
			<stop offset="1" stop-color="#ffffff"/>
		</linearGradient>
		<linearGradient id="g8" x2="1" gradientUnits="userSpaceOnUse" gradientTransform="matrix(4.404,0,0,4.404,504.101,111.056)">
			<stop offset="0" stop-color="#ffffff"/>
			<stop offset="1" stop-color="#ffffff"/>
		</linearGradient>
		<linearGradient id="g9" x2="1" gradientUnits="userSpaceOnUse" gradientTransform="matrix(4.405,0,0,4.405,274.113,31.191)">
			<stop offset="0" stop-color="#ffffff"/>
			<stop offset="1" stop-color="#ffffff"/>
		</linearGradient>
		<linearGradient id="g10" x2="1" gradientUnits="userSpaceOnUse" gradientTransform="matrix(2.876,0,0,2.876,42.483,160)">
			<stop offset="0" stop-color="#ffffff"/>
			<stop offset="1" stop-color="#ffffff"/>
		</linearGradient>
		<linearGradient id="g11" x2="1" gradientUnits="userSpaceOnUse" gradientTransform="matrix(2.876,0,0,2.876,313.225,229.747)">
			<stop offset="0" stop-color="#ffffff"/>
			<stop offset="1" stop-color="#ffffff"/>
		</linearGradient>
		<linearGradient id="g12" x2="1" gradientUnits="userSpaceOnUse" gradientTransform="matrix(2.876,0,0,2.876,390.168,199.551)">
			<stop offset="0" stop-color="#ffffff"/>
			<stop offset="1" stop-color="#ffffff"/>
		</linearGradient>
		<linearGradient id="g13" x2="1" gradientUnits="userSpaceOnUse" gradientTransform="matrix(2.876,0,0,2.876,491.921,193.798)">
			<stop offset="0" stop-color="#ffffff"/>
			<stop offset="1" stop-color="#ffffff"/>
		</linearGradient>
		<linearGradient id="g14" x2="1" gradientUnits="userSpaceOnUse" gradientTransform="matrix(2.876,0,0,2.876,246.849,122.657)">
			<stop offset="0" stop-color="#ffffff"/>
			<stop offset="1" stop-color="#ffffff"/>
		</linearGradient>
		<linearGradient id="g15" x2="1" gradientUnits="userSpaceOnUse" gradientTransform="matrix(2.876,0,0,2.876,154.618,49.258)">
			<stop offset="0" stop-color="#ffffff"/>
			<stop offset="1" stop-color="#ffffff"/>
		</linearGradient>
		<linearGradient id="g16" x2="1" gradientUnits="userSpaceOnUse" gradientTransform="matrix(2.876,0,0,2.876,417.135,128.36)">
			<stop offset="0" stop-color="#ffffff"/>
			<stop offset="1" stop-color="#ffffff"/>
		</linearGradient>
		<linearGradient id="g17" x2="1" gradientUnits="userSpaceOnUse" gradientTransform="matrix(2.876,0,0,2.876,484.011,53.573)">
			<stop offset="0" stop-color="#ffffff"/>
			<stop offset="1" stop-color="#ffffff"/>
		</linearGradient>
		<linearGradient id="g18" x2="1" gradientUnits="userSpaceOnUse" gradientTransform="matrix(2.876,0,0,2.876,388.73,34.157)">
			<stop offset="0" stop-color="#ffffff"/>
			<stop offset="1" stop-color="#ffffff"/>
		</linearGradient>
		<linearGradient id="g19" x2="1" gradientUnits="userSpaceOnUse" gradientTransform="matrix(115.21,-323.173,128.601,45.846,-287.352,541.006)">
			<stop offset="0" stop-color="#ffffff"/>
			<stop offset="1" stop-color="#035591"/>
		</linearGradient>
		<linearGradient id="g20" x2="1" gradientUnits="userSpaceOnUse" gradientTransform="matrix(14.719,-213.165,700.179,48.346,234.786,468.481)">
			<stop offset="0" stop-color="#ffffff"/>
			<stop offset="1" stop-color="#035591"/>
		</linearGradient>
		<linearGradient id="g21" x2="1" gradientUnits="userSpaceOnUse" gradientTransform="matrix(24.413,-353.571,473.788,32.714,62.588,677.346)">
			<stop offset="0" stop-color="#ffffff"/>
			<stop offset="1" stop-color="#035591"/>
		</linearGradient>
		<linearGradient id="g22" x2="1" gradientUnits="userSpaceOnUse" gradientTransform="matrix(4.404,0,0,4.404,87.337,33.393)">
			<stop offset="0" stop-color="#ffffff"/>
			<stop offset="1" stop-color="#ffffff"/>
		</linearGradient>
		<linearGradient id="g23" x2="1" gradientUnits="userSpaceOnUse" gradientTransform="matrix(4.404,0,0,4.405,305.944,103.865)">
			<stop offset="0" stop-color="#ffffff"/>
			<stop offset="1" stop-color="#ffffff"/>
		</linearGradient>
		<linearGradient id="g24" x2="1" gradientUnits="userSpaceOnUse" gradientTransform="matrix(2.876,0,0,2.876,96.955,221.767)">
			<stop offset="0" stop-color="#ffffff"/>
			<stop offset="1" stop-color="#ffffff"/>
		</linearGradient>
		<linearGradient id="g25" x2="1" gradientUnits="userSpaceOnUse" gradientTransform="matrix(2.876,0,0,2.876,99.831,78.702)">
			<stop offset="0" stop-color="#ffffff"/>
			<stop offset="1" stop-color="#ffffff"/>
		</linearGradient>
		<linearGradient id="g26" x2="1" gradientUnits="userSpaceOnUse" gradientTransform="matrix(2.876,0,0,2.876,272.589,228.309)">
			<stop offset="0" stop-color="#ffffff"/>
			<stop offset="1" stop-color="#ffffff"/>
		</linearGradient>
	</defs>
	<style>
		.s0 { fill: url(#g1) } 
		.s1 { fill: url(#g2) } 
		.s2 { fill: url(#g3) } 
		.s3 { fill: url(#g4) } 
		.s4 { fill: url(#g5) } 
		.s5 { fill: url(#g6) } 
		.s6 { fill: url(#g7) } 
		.s7 { fill: url(#g8) } 
		.s8 { fill: url(#g9) } 
		.s9 { fill: url(#g10) } 
		.s10 { fill: url(#g11) } 
		.s11 { fill: url(#g12) } 
		.s12 { fill: url(#g13) } 
		.s13 { fill: url(#g14) } 
		.s14 { fill: url(#g15) } 
		.s15 { fill: url(#g16) } 
		.s16 { fill: url(#g17) } 
		.s17 { fill: url(#g18) } 
		.s18 { fill: #eff4df } 
		.s19 { fill: url(#g19) } 
		.s20 { fill: url(#g20) } 
		.s21 { fill: url(#g21) } 
		.s22 { fill: url(#g22) } 
		.s23 { fill: url(#g23) } 
		.s24 { fill: url(#g24) } 
		.s25 { fill: url(#g25) } 
		.s26 { fill: url(#g26) } 
	</style>
	<g id="OBJECTS">
		<g id="&lt;Group&gt;">
			<g id="-e-mountain">
				<g id="&lt;Group&gt;">
					<path id="&lt;Path&gt;" class="s0" d="m539.2 0.2h-525.8c-7.2 0-13 5.9-13 13v527.5c3.2-5.4 6.6-10.7 10.2-15.8 37.8-53.4 96.2-88.3 157.6-106.7 50.5-15.1 103.4-19.9 154.8-31.4 51.5-11.4 107.2-29.2 146.2-65.9 25.6-24.1 36-34.7 63.5-73.8 8.2-11.8 15.8-26.9 19.4-40.9v-193c0-7.1-5.8-13-12.9-13z"/>
				</g>
				<g id="&lt;Group&gt;">
					<path id="&lt;Path&gt;" class="s1" d="m539.2 0.3h-525.8c-7.1 0-13 3.7-13 8.4v340.1c3.3-3.4 6.7-6.8 10.3-10.1 37.8-34.5 96.2-57 157.5-68.9 50.6-9.7 103.4-12.8 154.9-20.2 51.4-7.4 107.1-18.8 146.2-42.6 25.5-15.5 36-22.3 63.4-47.5 8.3-7.6 15.9-17.3 19.5-26.4v-124.4c0-4.7-5.8-8.4-13-8.4z"/>
				</g>
				<path id="&lt;Path&gt;" class="s2" d="m136 199.6c0 0.7-0.7 1.4-1.5 1.4-0.8 0-1.4-0.7-1.4-1.4 0-0.8 0.6-1.5 1.4-1.5 0.8 0 1.5 0.7 1.5 1.5z"/>
				<path id="&lt;Path&gt;" class="s3" d="m160.5 134.5c0 1.2-1 2.2-2.2 2.2-1.3 0-2.2-1-2.2-2.2 0-1.2 0.9-2.2 2.2-2.2 1.2 0 2.2 1 2.2 2.2z"/>
				<path id="&lt;Path&gt;" class="s4" d="m49 71.5c0 1.2-1 2.2-2.2 2.2-1.2 0-2.2-1-2.2-2.2 0-1.2 1-2.2 2.2-2.2 1.2 0 2.2 1 2.2 2.2z"/>
				<path id="&lt;Path&gt;" class="s5" d="m47.6 252.2c0 1.2-1 2.2-2.2 2.2-1.3 0-2.2-1-2.2-2.2 0-1.2 0.9-2.2 2.2-2.2 1.2 0 2.2 1 2.2 2.2z"/>
				<path id="&lt;Path&gt;" class="s6" d="m333.7 147.8c0 1.2-1 2.2-2.2 2.2-1.2 0-2.2-1-2.2-2.2 0-1.2 1-2.2 2.2-2.2 1.2 0 2.2 1 2.2 2.2z"/>
				<path id="&lt;Path&gt;" class="s7" d="m508.5 113.3c0 1.2-1 2.2-2.2 2.2-1.2 0-2.2-1-2.2-2.2 0-1.3 1-2.2 2.2-2.2 1.2 0 2.2 0.9 2.2 2.2z"/>
				<path id="&lt;Path&gt;" class="s8" d="m278.5 33.4c0 1.2-1 2.2-2.2 2.2-1.2 0-2.2-1-2.2-2.2 0-1.2 1-2.2 2.2-2.2 1.2 0 2.2 1 2.2 2.2z"/>
				<path id="&lt;Path&gt;" class="s9" d="m45.4 161.4c0 0.8-0.7 1.5-1.5 1.5-0.8 0-1.4-0.7-1.4-1.5 0-0.8 0.6-1.4 1.4-1.4 0.8 0 1.5 0.6 1.5 1.4z"/>
				<path id="&lt;Path&gt;" class="s10" d="m316.1 231.2c0 0.8-0.6 1.4-1.4 1.4-0.8 0-1.5-0.6-1.5-1.4 0-0.8 0.7-1.5 1.5-1.5 0.8 0 1.4 0.7 1.4 1.5z"/>
				<path id="&lt;Path&gt;" class="s11" d="m393 201c0 0.8-0.6 1.4-1.4 1.4-0.8 0-1.4-0.6-1.4-1.4 0-0.8 0.6-1.4 1.4-1.4 0.8 0 1.4 0.6 1.4 1.4z"/>
				<path id="&lt;Path&gt;" class="s12" d="m494.8 195.2c0 0.8-0.6 1.5-1.4 1.5-0.8 0-1.5-0.7-1.5-1.5 0-0.8 0.7-1.4 1.5-1.4 0.8 0 1.4 0.6 1.4 1.4z"/>
				<path id="&lt;Path&gt;" class="s13" d="m249.7 124.1c0 0.8-0.6 1.4-1.4 1.4-0.8 0-1.5-0.6-1.5-1.4 0-0.8 0.7-1.4 1.5-1.4 0.8 0 1.4 0.6 1.4 1.4z"/>
				<path id="&lt;Path&gt;" class="s14" d="m157.5 50.7c0 0.8-0.6 1.4-1.4 1.4-0.8 0-1.5-0.6-1.5-1.4 0-0.8 0.7-1.4 1.5-1.4 0.8 0 1.4 0.6 1.4 1.4z"/>
				<path id="&lt;Path&gt;" class="s15" d="m420 129.8c0 0.8-0.6 1.4-1.4 1.4-0.8 0-1.5-0.6-1.5-1.4 0-0.8 0.7-1.4 1.5-1.4 0.8 0 1.4 0.6 1.4 1.4z"/>
				<path id="&lt;Path&gt;" class="s16" d="m486.9 55c0 0.8-0.7 1.4-1.5 1.4-0.7 0-1.4-0.6-1.4-1.4 0-0.8 0.7-1.4 1.4-1.4 0.8 0 1.5 0.6 1.5 1.4z"/>
				<path id="&lt;Path&gt;" class="s17" d="m391.6 35.6c0 0.8-0.6 1.4-1.4 1.4-0.8 0-1.5-0.6-1.5-1.4 0-0.8 0.7-1.4 1.5-1.4 0.8 0 1.4 0.6 1.4 1.4z"/>
				<path id="&lt;Path&gt;" class="s18" d="m383.9 113.7c-17.1 0-31-13.8-31-30.9 0-11.2 5.9-21 14.8-26.4-12.7 3.9-21.9 15.7-21.9 29.6 0 17.1 13.9 31 31 31 6 0 11.5-1.7 16.2-4.6-2.8 0.9-5.9 1.3-9.1 1.3z"/>
				<g id="&lt;Group&gt;" style="opacity: .62">
					<path id="&lt;Path&gt;" class="s19" d="m60.4 283.1c-14.2-13.2-32.9-22.3-52.2-21.5q-4 0.2-7.8 0.9v160.9c14.8-50.8 34.5-103.1 60-140.3z"/>
				</g>
				<g id="&lt;Group&gt;" style="opacity: .83">
					<path id="&lt;Path&gt;" class="s20" d="m400.6 320.3c-19.8-23.8-34.4-57.6-64.9-63.5-30.8-5.9-58.3 21.8-70.3 50.8-33.7-35.3-73.6-73.2-122.4-71.9-30.6 0.8-60.6 17-78.7 41.7q-2 2.7-3.9 5.5 1.9 1.7 3.7 3.5c14.6 15.2 24.3 34.4 32.9 53.6 8.6-25.2 26.2-50.2 52.3-55.4 23.1-4.6 46.8 7.9 62.1 25.7 15.3 17.8 23.7 40.3 31.9 62.3 4.2-18.4 23.4-30.5 42.3-31.5 18.8-1 37 7.1 52.9 17.3 8.3 5.3 16.3 11.4 23.7 17.9 39.2-11.5 77.8-28.4 107.1-56 7-6.6 12.9-12.2 18.3-17.7-27.7-16.6-68.4-9.2-87 17.7z"/>
				</g>
				<g id="&lt;Group&gt;" style="opacity: .62">
					<path id="&lt;Path&gt;" class="s21" d="m0.4 540.1c3.3-5.3 6.7-10.6 10.3-15.7 37.8-53.4 96.2-88.4 157.5-106.7 50.6-15.2 103.4-19.9 154.9-31.4 12.9-2.9 26-6.1 39.1-10-7.4-6.5-15.4-12.6-23.7-17.9-15.9-10.2-34.1-18.3-52.9-17.3-18.9 1-38.1 13.1-42.3 31.5-8.2-22-16.6-44.5-31.9-62.3-15.3-17.8-39-30.3-62.1-25.7-26.1 5.2-43.7 30.2-52.3 55.4-8.6-19.2-18.3-38.4-32.9-53.6q-1.8-1.8-3.7-3.5c-25.5 37.2-45.2 89.4-60 140.2z"/>
				</g>
				<path id="&lt;Path&gt;" class="s22" d="m91.7 35.6c0 1.2-0.9 2.2-2.2 2.2-1.2 0-2.2-1-2.2-2.2 0-1.2 1-2.2 2.2-2.2 1.3 0 2.2 1 2.2 2.2z"/>
				<path id="&lt;Path&gt;" class="s23" d="m310.3 106.1c0 1.2-0.9 2.2-2.2 2.2-1.2 0-2.2-1-2.2-2.2 0-1.2 1-2.2 2.2-2.2 1.3 0 2.2 1 2.2 2.2z"/>
				<path id="&lt;Path&gt;" class="s24" d="m99.8 223.2c0 0.8-0.6 1.4-1.4 1.4-0.8 0-1.4-0.6-1.4-1.4 0-0.8 0.6-1.4 1.4-1.4 0.8 0 1.4 0.6 1.4 1.4z"/>
				<path id="&lt;Path&gt;" class="s25" d="m102.7 80.1c0 0.8-0.6 1.5-1.4 1.5-0.8 0-1.5-0.7-1.5-1.5 0-0.8 0.7-1.4 1.5-1.4 0.8 0 1.4 0.6 1.4 1.4z"/>
				<path id="&lt;Path&gt;" class="s26" d="m275.5 229.7c0 0.8-0.7 1.5-1.5 1.5-0.8 0-1.4-0.7-1.4-1.5 0-0.7 0.6-1.4 1.4-1.4 0.8 0 1.5 0.7 1.5 1.4z"/>
			</g>
		</g>
	</g>
</svg>